<svg xmlns="http://www.w3.org/2000/svg" version="1.1" xmlns:xlink="http://www.w3.org/1999/xlink" xmlns:svgjs="http://svgjs.com/svgjs" width="1440" height="770" preserveAspectRatio="none" viewBox="0 0 1440 770"><g mask="url(&quot;#SvgjsMask2704&quot;)" fill="none"><rect width="1440" height="770" x="0" y="0" fill="url(#SvgjsLinearGradient2705)"></rect><path d="M92 770L862 0L1495 0L725 770z" fill="url(#SvgjsLinearGradient2706)"></path><path d="M481.20000000000005 770L1251.2 0L1956.2 0L1186.2 770z" fill="url(#SvgjsLinearGradient2706)"></path><path d="M1388 770L618 0L18 0L788 770z" fill="url(#SvgjsLinearGradient2707)"></path><path d="M942.8 770L172.79999999999995 0L-293.70000000000005 0L476.29999999999995 770z" fill="url(#SvgjsLinearGradient2707)"></path><path d="M939.3890465266289 770L1440 269.38904652662893L1440 770z" fill="url(#SvgjsLinearGradient2706)"></path><path d="M0 770L500.61095347337107 770L 0 269.38904652662893z" fill="url(#SvgjsLinearGradient2707)"></path></g><defs><mask id="SvgjsMask2704"><rect width="1440" height="770" fill="#ffffff"></rect></mask><linearGradient x1="11.63%" y1="-21.75%" x2="88.37%" y2="121.75%" gradientUnits="userSpaceOnUse" id="SvgjsLinearGradient2705"><stop stop-color="rgba(14, 42, 71, 1)" offset="0"></stop><stop stop-color="rgba(242, 95, 58, 1)" offset="0.87"></stop></linearGradient><linearGradient x1="0%" y1="100%" x2="100%" y2="0%" id="SvgjsLinearGradient2706"><stop stop-color="rgba(23, 66, 155, 0.2)" offset="0"></stop><stop stop-opacity="0" stop-color="rgba(23, 66, 155, 0.2)" offset="0.66"></stop></linearGradient><linearGradient x1="100%" y1="100%" x2="0%" y2="0%" id="SvgjsLinearGradient2707"><stop stop-color="rgba(23, 66, 155, 0.2)" offset="0"></stop><stop stop-opacity="0" stop-color="rgba(23, 66, 155, 0.2)" offset="0.66"></stop></linearGradient></defs></svg>