<svg xmlns="http://www.w3.org/2000/svg" version="1.1" xmlns:xlink="http://www.w3.org/1999/xlink" xmlns:svgjs="http://svgjs.com/svgjs" width="1440" height="560" preserveAspectRatio="none" viewBox="0 0 1440 560"><g mask="url(&quot;#SvgjsMask1046&quot;)" fill="none"><rect width="1440" height="560" x="0" y="0" fill="rgba(242, 95, 58, 1)"></rect><path d="M0,339.779C61.517,328.743,106.599,280.717,154.971,241.14C198.002,205.933,232.092,165.372,266.521,121.716C312.022,64.021,389.206,17.508,389.283,-55.97C389.359,-128.707,316.673,-178.231,266.89,-231.262C218.989,-282.287,173.806,-344.342,105.269,-358.512C37.954,-372.429,-30.099,-339.471,-89.542,-304.952C-140.114,-275.584,-172.919,-226.628,-205.486,-178.054C-234.46,-134.838,-259.023,-89.777,-268.15,-38.554C-277.508,13.965,-269.312,65.746,-258.224,117.927C-244.335,183.286,-246.042,260.444,-195.36,303.987C-144.106,348.022,-66.511,351.711,0,339.779" fill="#f1542c"></path><path d="M1440 1022.3340000000001C1549.199 1048.857 1671.301 1127.7240000000002 1767.005 1068.829 1862.29 1010.193 1828.076 860.1610000000001 1871.255 756.948 1912.4940000000001 658.373 2033.971 582.461 2014.425 477.40999999999997 1994.752 371.676 1852.5430000000001 344.78 1779.825 265.54 1710.0810000000001 189.541 1692.22 64.32499999999999 1597.614 23.216999999999985 1501.542-18.527000000000044 1385.564 7.756999999999948 1291.1970000000001 53.22399999999999 1203.641 95.40899999999999 1154.455 184.577 1098.2069999999999 263.835 1047.194 335.717 1001.2909999999999 408.48400000000004 978.6279999999999 493.665 953.653 587.5360000000001 917.198 692.064 961.2370000000001 778.644 1005.129 864.935 1115.019 887.512 1201.298 931.428 1278.745 970.848 1355.5529999999999 1001.823 1440 1022.3340000000001" fill="#f36a48"></path></g><defs><mask id="SvgjsMask1046"><rect width="1440" height="560" fill="#ffffff"></rect></mask></defs></svg>