<svg xmlns="http://www.w3.org/2000/svg" version="1.1" xmlns:xlink="http://www.w3.org/1999/xlink" xmlns:svgjs="http://svgjs.com/svgjs" width="1440" height="560" preserveAspectRatio="none" viewBox="0 0 1440 560"><g mask="url(&quot;#SvgjsMask1131&quot;)" fill="none"><rect width="1440" height="560" x="0" y="0" fill="rgba(242, 95, 58, 1)"></rect><path d="M0,513.921C94.582,515.68,163.501,428.985,239.443,372.58C310.154,320.06,393.06,276.326,428.472,195.676C463.698,115.45,443.214,24.794,430.192,-61.852C417.248,-147.977,416.401,-246.15,353.082,-305.947C290.544,-365.007,189.735,-340.902,107.612,-366.492C23.574,-392.678,-46.417,-458.038,-134.44,-457.859C-237.112,-457.65,-348.708,-437.61,-421.71,-365.414C-496.002,-291.942,-536.164,-178.456,-521.58,-74.992C-507.746,23.155,-402.175,75.962,-347.813,158.841C-304.051,225.56,-289.62,306.776,-233.786,363.777C-167.638,431.307,-94.514,512.163,0,513.921" fill="#f1542c"></path><path d="M1440 1132.2649999999999C1569.275 1150.933 1721.251 1237.9099999999999 1823.163 1156.213 1928.036 1072.142 1869.171 899.6410000000001 1894.781 767.692 1913.416 671.677 1969.049 582.728 1953.202 486.21299999999997 1937.495 390.551 1852.739 327.029 1808.284 240.88 1746.03 120.238 1770.409-83.41200000000003 1639.926-120.88499999999999 1509.105-158.45500000000004 1434.331 57.579999999999984 1303.753 95.98599999999999 1173.278 134.36200000000002 1006.3969999999999 6.043000000000006 904.012 95.56400000000002 805.698 181.526 850.781 348.097 867.246 477.65 880.671 583.277 946.2280000000001 668.453 989.204 765.8720000000001 1032.883 864.886 1037.937 986.691 1121.917 1054.9470000000001 1208.342 1125.191 1329.772 1116.347 1440 1132.2649999999999" fill="#f36a48"></path></g><defs><mask id="SvgjsMask1131"><rect width="1440" height="560" fill="#ffffff"></rect></mask></defs></svg>